# xmcd
#
# Track frame offsets: 
#        183
#        13450
#        27175
#        37673
#        51043
#        65558
#        75865
#        86485
#        98818
#        109290
#        121165
#        131833
#        141933
#        155358
#        168460
#        180983
#        193930
#        207725
#        220843
#        234033
#        248625
#
# Disc length: 3482 seconds
#
# Revision: 2
# Processed by: cddbd v1.5.2PL0 Copyright (c) Steve Scherf et al.
# Submitted via: ExactAudioCopyFreeDBPlugin 1.0
#
DISCID=190d9815
DTITLE=Howlin' Wolf - Howlin' Wolf:  The Complete Recordings, 1951-196
DTITLE=9 [Charly box set]
DYEAR=1993
DGENRE=Blues
TTITLE0=I've Got a Woman
TTITLE1=Just My Kind
TTITLE2=Work for Your Money
TTITLE3=I'm Not Joking
TTITLE4=Mama Died and Left Me
TTITLE5=Highway Be My Friend
TTITLE6=Hold to Your Woman
TTITLE7=Streamline Woman
TTITLE8=California Blues
TTITLE9=Stay Here Till My Baby Comes
TTITLE10=Crazy About You Baby
TTITLE11=All Night Boogie
TTITLE12=I Love My Baby
TTITLE13=No Place to Go
TTITLE14=Neighbors
TTITLE15=I'm the Wolf
TTITLE16=Rockin' Daddy
TTITLE17=Baby How Long
TTITLE18=Evil
TTITLE19=I'll Be Around
TTITLE20=Forty Four
EXTD=
EXTT0=
EXTT1=
EXTT2=
EXTT3=
EXTT4=
EXTT5=
EXTT6=
EXTT7=
EXTT8=
EXTT9=
EXTT10=
EXTT11=
EXTT12=
EXTT13=
EXTT14=
EXTT15=
EXTT16=
EXTT17=
EXTT18=
EXTT19=
EXTT20=
PLAYORDER=
